# xmcd
#
# Track frame offsets:
#	182
#	12657
#	31372
#	44742
#	61855
#	79132
#	91540
#	106875
#	125522
#	139795
#	160897
#	177820
#	194667
#	213102
#	229920
#	249317
#	269142
#
# Disc length: 3937 seconds
#
# Revision: 1
# Processed by: cddbd v1.5.2PL0 Copyright (c) Steve Scherf et al.
# Submitted via: EasyCDDAExtractor 2010.4.0.0
#
DISCID=ed0f5f11
DTITLE=Various Artist - Baladas De Platino
DYEAR=1900
DGENRE=
TTITLE0=Francis Cabrel - La Quiero A Morir
TTITLE1=Braulio - En La Carcel De Tu Piel
TTITLE2=Segio Denis - Te Llamo Para Despedirme
TTITLE3=Nicola Di Bari - Rosa
TTITLE4=Los Pecos - Esperanzas
TTITLE5=Amanda Miguel - Hagamos Un Trato
TTITLE6=Jose Luis Rodriguez - Culpable Soy Yo
TTITLE7=Lorenzo Toppano - Ya No Puedo Mas
TTITLE8=Tormenta - Amamdo Y Amando
TTITLE9=Chayanne - Fuiste Un Trozo De Hielo En La Escarcha
TTITLE10=Ana Gabriel - Simplemente Amigos
TTITLE11=Franco De Vita - Te Amo
TTITLE12=Luis Angel - Lluvia
TTITLE13=Yuri - Me Tienes Que Querer
TTITLE14=Raphael - Maravilloso Corazon Maravilloso
TTITLE15=Vikki Carr - Mala Suerte
TTITLE16=Roberto Carlos - Se Divierte Y Ya No Piensa En Mi
EXTD=
EXTT0=
EXTT1=
EXTT2=
EXTT3=
EXTT4=
EXTT5=
EXTT6=
EXTT7=
EXTT8=
EXTT9=
EXTT10=
EXTT11=
EXTT12=
EXTT13=
EXTT14=
EXTT15=
EXTT16=
PLAYORDER=
